<?xml version="1.0"?>
<svg width="24" height="24" xmlns="http://www.w3.org/2000/svg" xmlns:svg="http://www.w3.org/2000/svg">
 <defs>
  <clipPath id="clip0_1076_36064">
   <rect fill="white" height="24" id="svg_1" width="24"/>
  </clipPath>
 </defs>
 <g class="layer">
  <title>Layer 1</title>
  <g clip-path="url(#clip0_1076_36064)" id="svg_2">
   <path d="m1.71,18.71c-0.39,0.39 -1.03,0.39 -1.42,0c-0.39,-0.39 -0.39,-1.03 0,-1.42l7.5,-7.5c0.39,-0.39 1.03,-0.39 1.42,0l4.29,4.3l7.09,-7.09l-3.59,0c-0.55,0 -1,-0.45 -1,-1c0,-0.55 0.45,-1 1,-1l6,0c0,0 0,0 0,0c0.14,0 0.27,0.03 0.38,0.08c0.12,0.04 0.23,0.12 0.33,0.21c0.18,0.19 0.28,0.42 0.29,0.66c0,0.02 0,0.03 0,0.05c0,0 0,0 0,0l0,6c0,0.55 -0.45,1 -1,1c-0.55,0 -1,-0.45 -1,-1l0,-3.59l-7.79,7.8c-0.39,0.39 -1.03,0.39 -1.42,0l-4.29,-4.3l-6.79,6.8z" fill="#7f7f7f" id="svg_3"/>
  </g>
 </g>
</svg>